# Blender v2.74 (sub 0) OBJ File: ''
# www.blender.org
mtllib tag.mtl
o Box
v 0.635700 0.500000 0.075000
v 0.635700 0.500000 -0.075000
v 0.635700 -0.500000 0.075000
v 0.635700 -0.500000 -0.075000
v -0.635700 0.500000 -0.075000
v -0.635700 0.500000 0.075000
v -0.635700 -0.500000 -0.075000
v -0.635700 -0.500000 0.075000
v 0.562296 0.442265 0.066340
v 0.562296 -0.442265 0.066340
v 0.562296 -0.442265 -0.066340
v 0.562296 0.442265 -0.066340
v -0.562296 0.442265 -0.066340
v -0.562296 -0.442265 -0.066340
v -0.562296 -0.442265 0.066340
v -0.562296 0.442265 0.066340
v 0.910713 -0.250000 0.075000
v 0.927216 -0.250000 -0.075000
v -0.635700 -0.250000 -0.075000
v -0.635700 -0.250000 0.075000
v 0.578799 -0.250000 -0.066340
v 0.562296 -0.250000 0.066340
v -0.562296 -0.250000 0.066340
v -0.562296 -0.250000 -0.066340
v 0.910713 0.250000 0.075000
v 0.927216 0.250000 -0.075000
v -0.635700 0.250000 -0.075000
v -0.635700 0.250000 0.075000
v 0.578799 0.250000 -0.066340
v 0.562296 0.250000 0.066340
v -0.562296 0.250000 0.066340
v -0.562296 0.250000 -0.066340
vt 0.000000 1.000000
vt 0.000000 0.750000
vt 1.000000 0.750000
vt 1.000000 1.000000
vt 0.000000 0.000000
vt 1.000000 0.000000
vt 1.000000 0.782636
vt 0.000000 0.782636
vt 0.000000 0.250000
vt 1.000000 0.250000
vt 1.000000 0.217364
vt 0.000000 0.217364
vn 0.993400 0.112000 0.023600
vn 0.995100 0.063300 0.076300
vn 0.996200 0.039600 0.077700
vn 0.991700 0.126500 0.023500
vn -1.000000 0.000000 0.000000
vn 0.000000 1.000000 0.000000
vn 0.000000 -1.000000 0.000000
vn 0.000000 0.000000 1.000000
vn 0.000000 0.000000 -1.000000
vn -0.998500 -0.008400 -0.054500
vn -0.996600 -0.004700 -0.081900
vn -0.996600 -0.004400 -0.081800
vn -0.998400 -0.009800 -0.054800
vn 1.000000 0.000000 0.000000
vn 0.995100 -0.063300 0.076300
vn 0.993400 -0.112000 0.023600
vn 0.991700 -0.126500 0.023500
vn 0.996200 -0.039600 0.077700
vn -0.996600 0.004700 -0.081900
vn -0.998500 0.008400 -0.054500
vn -0.998400 0.009800 -0.054800
vn -0.996600 0.004400 -0.081800
usemtl Physical
s 1
f 1/1/1 25/2/2 26/3/3 2/4/4
f 5/1/5 27/2/5 28/3/5 6/4/5
f 5/1/6 6/5/6 1/6/6 2/4/6
f 8/1/7 7/5/7 4/6/7 3/4/7
f 6/1/8 28/2/8 25/3/8 1/4/8
f 2/1/9 26/2/9 27/3/9 5/4/9
f 12/4/10 29/7/11 30/8/12 9/1/13
f 16/4/14 31/7/14 32/8/14 13/1/14
f 12/4/7 9/6/7 16/5/7 13/1/7
f 10/4/6 11/6/6 14/5/6 15/1/6
f 9/4/9 30/7/9 31/8/9 16/1/9
f 13/4/8 32/7/8 29/8/8 12/1/8
f 17/9/15 3/5/16 4/6/17 18/10/18
f 19/9/5 7/5/5 8/6/5 20/10/5
f 20/9/8 8/5/8 3/6/8 17/10/8
f 18/9/9 4/5/9 7/6/9 19/10/9
f 21/11/19 11/6/20 10/5/21 22/12/22
f 23/11/14 15/6/14 14/5/14 24/12/14
f 22/11/9 10/6/9 15/5/9 23/12/9
f 24/11/8 14/6/8 11/5/8 21/12/8
f 25/2/2 17/9/15 18/10/18 26/3/3
f 27/2/5 19/9/5 20/10/5 28/3/5
f 28/2/8 20/9/8 17/10/8 25/3/8
f 26/2/9 18/9/9 19/10/9 27/3/9
f 29/7/11 21/11/19 22/12/22 30/8/12
f 31/7/14 23/11/14 24/12/14 32/8/14
f 30/7/9 22/11/9 23/12/9 31/8/9
f 32/7/8 24/11/8 21/12/8 29/8/8
